<svg xmlns="http://www.w3.org/2000/svg" xmlns:xlink="http://www.w3.org/1999/xlink" width="187.527" height="33" viewBox="0 0 187.527 33">
  <defs>
    <clipPath id="clip-path">
      <rect id="Rectangle_102" data-name="Rectangle 102" width="136.471" height="23.349" fill="none"/>
    </clipPath>
  </defs>
  <g id="Group_223" data-name="Group 223" transform="translate(-2108 -4078)">
    <path id="Path_123" data-name="Path 123" d="M7.844,10.616A3.922,3.922,0,1,1,3.922,6.694a3.922,3.922,0,0,1,3.922,3.922" transform="translate(2108 4071.306)" fill="#121d2e"/>
    <path id="Path_124" data-name="Path 124" d="M37.774,10.616a3.922,3.922,0,1,1-3.922-3.922,3.922,3.922,0,0,1,3.922,3.922" transform="translate(2090.648 4071.306)" fill="#3c7af7"/>
    <path id="Path_125" data-name="Path 125" d="M67.7,10.616a3.922,3.922,0,1,1-3.922-3.922A3.922,3.922,0,0,1,67.7,10.616" transform="translate(2073.296 4071.306)" fill="#121d2e"/>
    <path id="Path_126" data-name="Path 126" d="M7.844,40.546a3.922,3.922,0,1,1-3.922-3.922,3.922,3.922,0,0,1,3.922,3.922" transform="translate(2108 4053.954)" fill="#3c7af7"/>
    <path id="Union_3" data-name="Union 3" d="M0,3.922H7.846A3.923,3.923,0,0,1,0,3.922Zm0,0a3.923,3.923,0,0,1,7.846,0Z" transform="translate(2120.577 4090.578)" fill="#121d2e"/>
    <path id="Path_129" data-name="Path 129" d="M67.7,40.546a3.922,3.922,0,1,1-3.922-3.922A3.922,3.922,0,0,1,67.7,40.546" transform="translate(2073.296 4053.954)" fill="#3c7af7"/>
    <path id="Path_130" data-name="Path 130" d="M7.844,70.476a3.922,3.922,0,1,1-3.922-3.922,3.922,3.922,0,0,1,3.922,3.922" transform="translate(2108 4036.602)" fill="#121d2e"/>
    <path id="Path_131" data-name="Path 131" d="M37.774,70.476a3.922,3.922,0,1,1-3.922-3.922,3.922,3.922,0,0,1,3.922,3.922" transform="translate(2090.648 4036.602)" fill="#3c7af7"/>
    <path id="Path_132" data-name="Path 132" d="M67.7,70.476a3.922,3.922,0,1,1-3.922-3.922A3.922,3.922,0,0,1,67.7,70.476" transform="translate(2073.296 4036.602)" fill="#121d2e"/>
    <g id="Group_222" data-name="Group 222" transform="translate(2159.057 4080.771)">
      <path id="Path_58" data-name="Path 58" d="M63.393,38.752H57.463l5.259-7.671-5.695-7.839h6.365l2.244,3.383,2.077-3.383h6.163l-5.393,7.839,5.393,7.671H67.714L65.637,35.2Z" transform="translate(-39.274 -16.006)" fill="#3c7af7"/>
      <g id="Group_188" data-name="Group 188" transform="translate(0 0)">
        <g id="Group_187" data-name="Group 187" clip-path="url(#clip-path)">
          <path id="Path_59" data-name="Path 59" d="M127.156,35.711a8.661,8.661,0,0,1-6.063,2.312,9.063,9.063,0,0,1-6.2-2.446,7.77,7.77,0,0,1-2.345-5.829,8.155,8.155,0,0,1,8.475-8.442,9.333,9.333,0,0,1,6.465,2.68l-3.383,3.048a3.767,3.767,0,0,0-2.847-1.239,3.637,3.637,0,0,0-3.585,3.785,3.815,3.815,0,0,0,3.853,3.953,3.746,3.746,0,0,0,2.579-1.106Z" transform="translate(-77.511 -14.673)" fill="#121d2e"/>
          <path id="Path_60" data-name="Path 60" d="M179.574,29.848c0,4.589-3.853,8.174-8.743,8.174-5.025,0-8.676-3.484-8.676-8.341,0-4.924,3.585-8.375,8.743-8.375a8.324,8.324,0,0,1,8.676,8.542m-12.328-.167a3.566,3.566,0,0,0,3.618,3.853,3.511,3.511,0,0,0,3.584-3.752c0-2.479-1.34-3.953-3.551-3.953a3.538,3.538,0,0,0-3.651,3.852" transform="translate(-111.672 -14.673)" fill="#121d2e"/>
          <path id="Path_61" data-name="Path 61" d="M240.976,23.242V32.99c0,2.378-.536,3.718-1.842,4.79a9.741,9.741,0,0,1-10.82-.134c-1.172-1-1.709-2.512-1.709-4.656V23.242H231.7v9.38c0,1.608.771,2.512,2.144,2.512a1.929,1.929,0,0,0,2.043-2.144V23.242Z" transform="translate(-156.059 -16.006)" fill="#121d2e"/>
          <path id="Path_62" data-name="Path 62" d="M289.37,21.908V23.65a4.037,4.037,0,0,1,3.953-2.345,5.807,5.807,0,0,1,3.986,1.508c1.039,1.072,1.407,2.345,1.407,5.092v9.514h-5.092v-9.48c0-1.508-.8-2.412-2.11-2.412S289.37,26.5,289.37,28v9.413h-5.092V21.908Z" transform="translate(-195.777 -14.672)" fill="#121d2e"/>
          <path id="Path_63" data-name="Path 63" d="M354.191,35.711a8.661,8.661,0,0,1-6.063,2.312,9.063,9.063,0,0,1-6.2-2.446,7.77,7.77,0,0,1-2.345-5.829,8.155,8.155,0,0,1,8.475-8.442,9.332,9.332,0,0,1,6.465,2.68l-3.383,3.048a3.766,3.766,0,0,0-2.847-1.239,3.637,3.637,0,0,0-3.584,3.785,3.814,3.814,0,0,0,3.852,3.953,3.746,3.746,0,0,0,2.579-1.106Z" transform="translate(-233.866 -14.673)" fill="#121d2e"/>
          <path id="Path_64" data-name="Path 64" d="M398.381,2.747a2.714,2.714,0,0,1-5.427-.034A2.631,2.631,0,0,1,395.7,0a2.6,2.6,0,0,1,2.68,2.747m-.167,20h-5.092V7.236h5.092Z" transform="translate(-270.62 0)" fill="#121d2e"/>
          <rect id="Rectangle_100" data-name="Rectangle 100" width="5.092" height="22.344" transform="translate(131.379 0.402)" fill="#121d2e"/>
          <path id="Path_65" data-name="Path 65" d="M17.42,29.848c0,4.589-3.853,8.174-8.743,8.174C3.651,38.022,0,34.538,0,29.681c0-4.924,3.585-8.375,8.743-8.375a8.324,8.324,0,0,1,8.676,8.542M5.092,29.681A3.566,3.566,0,0,0,8.71,33.533a3.511,3.511,0,0,0,3.585-3.752c0-2.479-1.34-3.953-3.551-3.953a3.538,3.538,0,0,0-3.651,3.852" transform="translate(0 -14.673)" fill="#3c7af7"/>
          <rect id="Rectangle_101" data-name="Rectangle 101" width="16.189" height="2.045" transform="translate(2.263 19.991) rotate(-45)" fill="#3c7af7"/>
        </g>
      </g>
    </g>
  </g>
</svg>
